<?xml version="1.0" encoding="utf-8" standalone="no"?>
<!DOCTYPE svg PUBLIC "-//W3C//DTD SVG 1.1//EN"
  "http://www.w3.org/Graphics/SVG/1.1/DTD/svg11.dtd">
<svg xmlns:xlink="http://www.w3.org/1999/xlink" width="863.718125pt" height="431.468437pt" viewBox="0 0 863.718125 431.468437" xmlns="http://www.w3.org/2000/svg" version="1.1">
 <metadata>
  <rdf:RDF xmlns:dc="http://purl.org/dc/elements/1.1/" xmlns:cc="http://creativecommons.org/ns#" xmlns:rdf="http://www.w3.org/1999/02/22-rdf-syntax-ns#">
   <cc:Work>
    <dc:type rdf:resource="http://purl.org/dc/dcmitype/StillImage"/>
    <dc:date>2024-12-29T15:22:34.083654</dc:date>
    <dc:format>image/svg+xml</dc:format>
    <dc:creator>
     <cc:Agent>
      <dc:title>Matplotlib v3.5.1, https://matplotlib.org/</dc:title>
     </cc:Agent>
    </dc:creator>
   </cc:Work>
  </rdf:RDF>
 </metadata>
 <defs>
  <style type="text/css">*{stroke-linejoin: round; stroke-linecap: butt}</style>
 </defs>
 <g id="figure_1">
  <g id="patch_1">
   <path d="M 0 431.468437 
L 863.718125 431.468437 
L 863.718125 0 
L 0 0 
z
" style="fill: #ffffff"/>
  </g>
  <g id="axes_1">
   <g id="patch_2">
    <path d="M 48.2 395.82 
L 822.2 395.82 
L 822.2 7.2 
L 48.2 7.2 
z
" style="fill: #ffffff"/>
   </g>
   <g id="matplotlib.axis_1">
    <g id="xtick_1">
     <g id="line2d_1">
      <path d="M 83.381818 395.82 
L 83.381818 7.2 
" clip-path="url(#pc861e7d9a2)" style="fill: none; stroke-dasharray: 2.96,1.28; stroke-dashoffset: 0; stroke: #cccccc; stroke-opacity: 0.2; stroke-width: 0.8"/>
     </g>
     <g id="line2d_2"/>
     <g id="text_1">
      <!-- 0 -->
      <g style="fill: #262626" transform="translate(80.045256 407.909375)scale(0.12 -0.12)">
       <defs>
        <path id="ArialMT-30" d="M 266 2259 
Q 266 3072 433 3567 
Q 600 4063 929 4331 
Q 1259 4600 1759 4600 
Q 2128 4600 2406 4451 
Q 2684 4303 2865 4023 
Q 3047 3744 3150 3342 
Q 3253 2941 3253 2259 
Q 3253 1453 3087 958 
Q 2922 463 2592 192 
Q 2263 -78 1759 -78 
Q 1097 -78 719 397 
Q 266 969 266 2259 
z
M 844 2259 
Q 844 1131 1108 757 
Q 1372 384 1759 384 
Q 2147 384 2411 759 
Q 2675 1134 2675 2259 
Q 2675 3391 2411 3762 
Q 2147 4134 1753 4134 
Q 1366 4134 1134 3806 
Q 844 3388 844 2259 
z
" transform="scale(0.015625)"/>
       </defs>
       <use xlink:href="#ArialMT-30"/>
      </g>
     </g>
    </g>
    <g id="xtick_2">
     <g id="line2d_3">
      <path d="M 129.042841 395.82 
L 129.042841 7.2 
" clip-path="url(#pc861e7d9a2)" style="fill: none; stroke-dasharray: 2.96,1.28; stroke-dashoffset: 0; stroke: #cccccc; stroke-opacity: 0.2; stroke-width: 0.8"/>
     </g>
     <g id="line2d_4"/>
     <g id="text_2">
      <!-- 50 -->
      <g style="fill: #262626" transform="translate(122.369716 407.909375)scale(0.12 -0.12)">
       <defs>
        <path id="ArialMT-35" d="M 266 1200 
L 856 1250 
Q 922 819 1161 601 
Q 1400 384 1738 384 
Q 2144 384 2425 690 
Q 2706 997 2706 1503 
Q 2706 1984 2436 2262 
Q 2166 2541 1728 2541 
Q 1456 2541 1237 2417 
Q 1019 2294 894 2097 
L 366 2166 
L 809 4519 
L 3088 4519 
L 3088 3981 
L 1259 3981 
L 1013 2750 
Q 1425 3038 1878 3038 
Q 2478 3038 2890 2622 
Q 3303 2206 3303 1553 
Q 3303 931 2941 478 
Q 2500 -78 1738 -78 
Q 1113 -78 717 272 
Q 322 622 266 1200 
z
" transform="scale(0.015625)"/>
       </defs>
       <use xlink:href="#ArialMT-35"/>
       <use xlink:href="#ArialMT-30" x="55.615234"/>
      </g>
     </g>
    </g>
    <g id="xtick_3">
     <g id="line2d_5">
      <path d="M 174.703864 395.82 
L 174.703864 7.2 
" clip-path="url(#pc861e7d9a2)" style="fill: none; stroke-dasharray: 2.96,1.28; stroke-dashoffset: 0; stroke: #cccccc; stroke-opacity: 0.2; stroke-width: 0.8"/>
     </g>
     <g id="line2d_6"/>
     <g id="text_3">
      <!-- 100 -->
      <g style="fill: #262626" transform="translate(164.694177 407.909375)scale(0.12 -0.12)">
       <defs>
        <path id="ArialMT-31" d="M 2384 0 
L 1822 0 
L 1822 3584 
Q 1619 3391 1289 3197 
Q 959 3003 697 2906 
L 697 3450 
Q 1169 3672 1522 3987 
Q 1875 4303 2022 4600 
L 2384 4600 
L 2384 0 
z
" transform="scale(0.015625)"/>
       </defs>
       <use xlink:href="#ArialMT-31"/>
       <use xlink:href="#ArialMT-30" x="55.615234"/>
       <use xlink:href="#ArialMT-30" x="111.230469"/>
      </g>
     </g>
    </g>
    <g id="xtick_4">
     <g id="line2d_7">
      <path d="M 220.364887 395.82 
L 220.364887 7.2 
" clip-path="url(#pc861e7d9a2)" style="fill: none; stroke-dasharray: 2.96,1.28; stroke-dashoffset: 0; stroke: #cccccc; stroke-opacity: 0.2; stroke-width: 0.8"/>
     </g>
     <g id="line2d_8"/>
     <g id="text_4">
      <!-- 150 -->
      <g style="fill: #262626" transform="translate(210.3552 407.909375)scale(0.12 -0.12)">
       <use xlink:href="#ArialMT-31"/>
       <use xlink:href="#ArialMT-35" x="55.615234"/>
       <use xlink:href="#ArialMT-30" x="111.230469"/>
      </g>
     </g>
    </g>
    <g id="xtick_5">
     <g id="line2d_9">
      <path d="M 266.02591 395.82 
L 266.02591 7.2 
" clip-path="url(#pc861e7d9a2)" style="fill: none; stroke-dasharray: 2.96,1.28; stroke-dashoffset: 0; stroke: #cccccc; stroke-opacity: 0.2; stroke-width: 0.8"/>
     </g>
     <g id="line2d_10"/>
     <g id="text_5">
      <!-- 200 -->
      <g style="fill: #262626" transform="translate(256.016222 407.909375)scale(0.12 -0.12)">
       <defs>
        <path id="ArialMT-32" d="M 3222 541 
L 3222 0 
L 194 0 
Q 188 203 259 391 
Q 375 700 629 1000 
Q 884 1300 1366 1694 
Q 2113 2306 2375 2664 
Q 2638 3022 2638 3341 
Q 2638 3675 2398 3904 
Q 2159 4134 1775 4134 
Q 1369 4134 1125 3890 
Q 881 3647 878 3216 
L 300 3275 
Q 359 3922 746 4261 
Q 1134 4600 1788 4600 
Q 2447 4600 2831 4234 
Q 3216 3869 3216 3328 
Q 3216 3053 3103 2787 
Q 2991 2522 2730 2228 
Q 2469 1934 1863 1422 
Q 1356 997 1212 845 
Q 1069 694 975 541 
L 3222 541 
z
" transform="scale(0.015625)"/>
       </defs>
       <use xlink:href="#ArialMT-32"/>
       <use xlink:href="#ArialMT-30" x="55.615234"/>
       <use xlink:href="#ArialMT-30" x="111.230469"/>
      </g>
     </g>
    </g>
    <g id="xtick_6">
     <g id="line2d_11">
      <path d="M 311.686933 395.82 
L 311.686933 7.2 
" clip-path="url(#pc861e7d9a2)" style="fill: none; stroke-dasharray: 2.96,1.28; stroke-dashoffset: 0; stroke: #cccccc; stroke-opacity: 0.2; stroke-width: 0.8"/>
     </g>
     <g id="line2d_12"/>
     <g id="text_6">
      <!-- 250 -->
      <g style="fill: #262626" transform="translate(301.677245 407.909375)scale(0.12 -0.12)">
       <use xlink:href="#ArialMT-32"/>
       <use xlink:href="#ArialMT-35" x="55.615234"/>
       <use xlink:href="#ArialMT-30" x="111.230469"/>
      </g>
     </g>
    </g>
    <g id="xtick_7">
     <g id="line2d_13">
      <path d="M 357.347956 395.82 
L 357.347956 7.2 
" clip-path="url(#pc861e7d9a2)" style="fill: none; stroke-dasharray: 2.96,1.28; stroke-dashoffset: 0; stroke: #cccccc; stroke-opacity: 0.2; stroke-width: 0.8"/>
     </g>
     <g id="line2d_14"/>
     <g id="text_7">
      <!-- 300 -->
      <g style="fill: #262626" transform="translate(347.338268 407.909375)scale(0.12 -0.12)">
       <defs>
        <path id="ArialMT-33" d="M 269 1209 
L 831 1284 
Q 928 806 1161 595 
Q 1394 384 1728 384 
Q 2125 384 2398 659 
Q 2672 934 2672 1341 
Q 2672 1728 2419 1979 
Q 2166 2231 1775 2231 
Q 1616 2231 1378 2169 
L 1441 2663 
Q 1497 2656 1531 2656 
Q 1891 2656 2178 2843 
Q 2466 3031 2466 3422 
Q 2466 3731 2256 3934 
Q 2047 4138 1716 4138 
Q 1388 4138 1169 3931 
Q 950 3725 888 3313 
L 325 3413 
Q 428 3978 793 4289 
Q 1159 4600 1703 4600 
Q 2078 4600 2393 4439 
Q 2709 4278 2876 4000 
Q 3044 3722 3044 3409 
Q 3044 3113 2884 2869 
Q 2725 2625 2413 2481 
Q 2819 2388 3044 2092 
Q 3269 1797 3269 1353 
Q 3269 753 2831 336 
Q 2394 -81 1725 -81 
Q 1122 -81 723 278 
Q 325 638 269 1209 
z
" transform="scale(0.015625)"/>
       </defs>
       <use xlink:href="#ArialMT-33"/>
       <use xlink:href="#ArialMT-30" x="55.615234"/>
       <use xlink:href="#ArialMT-30" x="111.230469"/>
      </g>
     </g>
    </g>
    <g id="xtick_8">
     <g id="line2d_15">
      <path d="M 403.008979 395.82 
L 403.008979 7.2 
" clip-path="url(#pc861e7d9a2)" style="fill: none; stroke-dasharray: 2.96,1.28; stroke-dashoffset: 0; stroke: #cccccc; stroke-opacity: 0.2; stroke-width: 0.8"/>
     </g>
     <g id="line2d_16"/>
     <g id="text_8">
      <!-- 350 -->
      <g style="fill: #262626" transform="translate(392.999291 407.909375)scale(0.12 -0.12)">
       <use xlink:href="#ArialMT-33"/>
       <use xlink:href="#ArialMT-35" x="55.615234"/>
       <use xlink:href="#ArialMT-30" x="111.230469"/>
      </g>
     </g>
    </g>
    <g id="xtick_9">
     <g id="line2d_17">
      <path d="M 448.670002 395.82 
L 448.670002 7.2 
" clip-path="url(#pc861e7d9a2)" style="fill: none; stroke-dasharray: 2.96,1.28; stroke-dashoffset: 0; stroke: #cccccc; stroke-opacity: 0.2; stroke-width: 0.8"/>
     </g>
     <g id="line2d_18"/>
     <g id="text_9">
      <!-- 400 -->
      <g style="fill: #262626" transform="translate(438.660314 407.909375)scale(0.12 -0.12)">
       <defs>
        <path id="ArialMT-34" d="M 2069 0 
L 2069 1097 
L 81 1097 
L 81 1613 
L 2172 4581 
L 2631 4581 
L 2631 1613 
L 3250 1613 
L 3250 1097 
L 2631 1097 
L 2631 0 
L 2069 0 
z
M 2069 1613 
L 2069 3678 
L 634 1613 
L 2069 1613 
z
" transform="scale(0.015625)"/>
       </defs>
       <use xlink:href="#ArialMT-34"/>
       <use xlink:href="#ArialMT-30" x="55.615234"/>
       <use xlink:href="#ArialMT-30" x="111.230469"/>
      </g>
     </g>
    </g>
    <g id="xtick_10">
     <g id="line2d_19">
      <path d="M 494.331025 395.82 
L 494.331025 7.2 
" clip-path="url(#pc861e7d9a2)" style="fill: none; stroke-dasharray: 2.96,1.28; stroke-dashoffset: 0; stroke: #cccccc; stroke-opacity: 0.2; stroke-width: 0.8"/>
     </g>
     <g id="line2d_20"/>
     <g id="text_10">
      <!-- 450 -->
      <g style="fill: #262626" transform="translate(484.321337 407.909375)scale(0.12 -0.12)">
       <use xlink:href="#ArialMT-34"/>
       <use xlink:href="#ArialMT-35" x="55.615234"/>
       <use xlink:href="#ArialMT-30" x="111.230469"/>
      </g>
     </g>
    </g>
    <g id="xtick_11">
     <g id="line2d_21">
      <path d="M 539.992048 395.82 
L 539.992048 7.2 
" clip-path="url(#pc861e7d9a2)" style="fill: none; stroke-dasharray: 2.96,1.28; stroke-dashoffset: 0; stroke: #cccccc; stroke-opacity: 0.2; stroke-width: 0.8"/>
     </g>
     <g id="line2d_22"/>
     <g id="text_11">
      <!-- 500 -->
      <g style="fill: #262626" transform="translate(529.98236 407.909375)scale(0.12 -0.12)">
       <use xlink:href="#ArialMT-35"/>
       <use xlink:href="#ArialMT-30" x="55.615234"/>
       <use xlink:href="#ArialMT-30" x="111.230469"/>
      </g>
     </g>
    </g>
    <g id="xtick_12">
     <g id="line2d_23">
      <path d="M 585.653071 395.82 
L 585.653071 7.2 
" clip-path="url(#pc861e7d9a2)" style="fill: none; stroke-dasharray: 2.96,1.28; stroke-dashoffset: 0; stroke: #cccccc; stroke-opacity: 0.2; stroke-width: 0.8"/>
     </g>
     <g id="line2d_24"/>
     <g id="text_12">
      <!-- 550 -->
      <g style="fill: #262626" transform="translate(575.643383 407.909375)scale(0.12 -0.12)">
       <use xlink:href="#ArialMT-35"/>
       <use xlink:href="#ArialMT-35" x="55.615234"/>
       <use xlink:href="#ArialMT-30" x="111.230469"/>
      </g>
     </g>
    </g>
    <g id="xtick_13">
     <g id="line2d_25">
      <path d="M 631.314094 395.82 
L 631.314094 7.2 
" clip-path="url(#pc861e7d9a2)" style="fill: none; stroke-dasharray: 2.96,1.28; stroke-dashoffset: 0; stroke: #cccccc; stroke-opacity: 0.2; stroke-width: 0.8"/>
     </g>
     <g id="line2d_26"/>
     <g id="text_13">
      <!-- 600 -->
      <g style="fill: #262626" transform="translate(621.304406 407.909375)scale(0.12 -0.12)">
       <defs>
        <path id="ArialMT-36" d="M 3184 3459 
L 2625 3416 
Q 2550 3747 2413 3897 
Q 2184 4138 1850 4138 
Q 1581 4138 1378 3988 
Q 1113 3794 959 3422 
Q 806 3050 800 2363 
Q 1003 2672 1297 2822 
Q 1591 2972 1913 2972 
Q 2475 2972 2870 2558 
Q 3266 2144 3266 1488 
Q 3266 1056 3080 686 
Q 2894 316 2569 119 
Q 2244 -78 1831 -78 
Q 1128 -78 684 439 
Q 241 956 241 2144 
Q 241 3472 731 4075 
Q 1159 4600 1884 4600 
Q 2425 4600 2770 4297 
Q 3116 3994 3184 3459 
z
M 888 1484 
Q 888 1194 1011 928 
Q 1134 663 1356 523 
Q 1578 384 1822 384 
Q 2178 384 2434 671 
Q 2691 959 2691 1453 
Q 2691 1928 2437 2201 
Q 2184 2475 1800 2475 
Q 1419 2475 1153 2201 
Q 888 1928 888 1484 
z
" transform="scale(0.015625)"/>
       </defs>
       <use xlink:href="#ArialMT-36"/>
       <use xlink:href="#ArialMT-30" x="55.615234"/>
       <use xlink:href="#ArialMT-30" x="111.230469"/>
      </g>
     </g>
    </g>
    <g id="xtick_14">
     <g id="line2d_27">
      <path d="M 676.975117 395.82 
L 676.975117 7.2 
" clip-path="url(#pc861e7d9a2)" style="fill: none; stroke-dasharray: 2.96,1.28; stroke-dashoffset: 0; stroke: #cccccc; stroke-opacity: 0.2; stroke-width: 0.8"/>
     </g>
     <g id="line2d_28"/>
     <g id="text_14">
      <!-- 800 -->
      <g style="fill: #262626" transform="translate(666.965429 407.909375)scale(0.12 -0.12)">
       <defs>
        <path id="ArialMT-38" d="M 1131 2484 
Q 781 2613 612 2850 
Q 444 3088 444 3419 
Q 444 3919 803 4259 
Q 1163 4600 1759 4600 
Q 2359 4600 2725 4251 
Q 3091 3903 3091 3403 
Q 3091 3084 2923 2848 
Q 2756 2613 2416 2484 
Q 2838 2347 3058 2040 
Q 3278 1734 3278 1309 
Q 3278 722 2862 322 
Q 2447 -78 1769 -78 
Q 1091 -78 675 323 
Q 259 725 259 1325 
Q 259 1772 486 2073 
Q 713 2375 1131 2484 
z
M 1019 3438 
Q 1019 3113 1228 2906 
Q 1438 2700 1772 2700 
Q 2097 2700 2305 2904 
Q 2513 3109 2513 3406 
Q 2513 3716 2298 3927 
Q 2084 4138 1766 4138 
Q 1444 4138 1231 3931 
Q 1019 3725 1019 3438 
z
M 838 1322 
Q 838 1081 952 856 
Q 1066 631 1291 507 
Q 1516 384 1775 384 
Q 2178 384 2440 643 
Q 2703 903 2703 1303 
Q 2703 1709 2433 1975 
Q 2163 2241 1756 2241 
Q 1359 2241 1098 1978 
Q 838 1716 838 1322 
z
" transform="scale(0.015625)"/>
       </defs>
       <use xlink:href="#ArialMT-38"/>
       <use xlink:href="#ArialMT-30" x="55.615234"/>
       <use xlink:href="#ArialMT-30" x="111.230469"/>
      </g>
     </g>
    </g>
    <g id="xtick_15">
     <g id="line2d_29">
      <path d="M 722.636139 395.82 
L 722.636139 7.2 
" clip-path="url(#pc861e7d9a2)" style="fill: none; stroke-dasharray: 2.96,1.28; stroke-dashoffset: 0; stroke: #cccccc; stroke-opacity: 0.2; stroke-width: 0.8"/>
     </g>
     <g id="line2d_30"/>
     <g id="text_15">
      <!-- 1000 -->
      <g style="fill: #262626" transform="translate(709.289889 407.909375)scale(0.12 -0.12)">
       <use xlink:href="#ArialMT-31"/>
       <use xlink:href="#ArialMT-30" x="55.615234"/>
       <use xlink:href="#ArialMT-30" x="111.230469"/>
       <use xlink:href="#ArialMT-30" x="166.845703"/>
      </g>
     </g>
    </g>
    <g id="xtick_16">
     <g id="line2d_31">
      <path d="M 768.297162 395.82 
L 768.297162 7.2 
" clip-path="url(#pc861e7d9a2)" style="fill: none; stroke-dasharray: 2.96,1.28; stroke-dashoffset: 0; stroke: #cccccc; stroke-opacity: 0.2; stroke-width: 0.8"/>
     </g>
     <g id="line2d_32"/>
     <g id="text_16">
      <!-- 1200 -->
      <g style="fill: #262626" transform="translate(754.950912 407.909375)scale(0.12 -0.12)">
       <use xlink:href="#ArialMT-31"/>
       <use xlink:href="#ArialMT-32" x="55.615234"/>
       <use xlink:href="#ArialMT-30" x="111.230469"/>
       <use xlink:href="#ArialMT-30" x="166.845703"/>
      </g>
     </g>
    </g>
    <g id="text_17">
     <!-- Time Steps -->
     <g style="fill: #262626" transform="translate(400.064375 421.485937)scale(0.14 -0.14)">
      <defs>
       <path id="ArialMT-54" d="M 1659 0 
L 1659 4041 
L 150 4041 
L 150 4581 
L 3781 4581 
L 3781 4041 
L 2266 4041 
L 2266 0 
L 1659 0 
z
" transform="scale(0.015625)"/>
       <path id="ArialMT-69" d="M 425 3934 
L 425 4581 
L 988 4581 
L 988 3934 
L 425 3934 
z
M 425 0 
L 425 3319 
L 988 3319 
L 988 0 
L 425 0 
z
" transform="scale(0.015625)"/>
       <path id="ArialMT-6d" d="M 422 0 
L 422 3319 
L 925 3319 
L 925 2853 
Q 1081 3097 1340 3245 
Q 1600 3394 1931 3394 
Q 2300 3394 2536 3241 
Q 2772 3088 2869 2813 
Q 3263 3394 3894 3394 
Q 4388 3394 4653 3120 
Q 4919 2847 4919 2278 
L 4919 0 
L 4359 0 
L 4359 2091 
Q 4359 2428 4304 2576 
Q 4250 2725 4106 2815 
Q 3963 2906 3769 2906 
Q 3419 2906 3187 2673 
Q 2956 2441 2956 1928 
L 2956 0 
L 2394 0 
L 2394 2156 
Q 2394 2531 2256 2718 
Q 2119 2906 1806 2906 
Q 1569 2906 1367 2781 
Q 1166 2656 1075 2415 
Q 984 2175 984 1722 
L 984 0 
L 422 0 
z
" transform="scale(0.015625)"/>
       <path id="ArialMT-65" d="M 2694 1069 
L 3275 997 
Q 3138 488 2766 206 
Q 2394 -75 1816 -75 
Q 1088 -75 661 373 
Q 234 822 234 1631 
Q 234 2469 665 2931 
Q 1097 3394 1784 3394 
Q 2450 3394 2872 2941 
Q 3294 2488 3294 1666 
Q 3294 1616 3291 1516 
L 816 1516 
Q 847 969 1125 678 
Q 1403 388 1819 388 
Q 2128 388 2347 550 
Q 2566 713 2694 1069 
z
M 847 1978 
L 2700 1978 
Q 2663 2397 2488 2606 
Q 2219 2931 1791 2931 
Q 1403 2931 1139 2672 
Q 875 2413 847 1978 
z
" transform="scale(0.015625)"/>
       <path id="ArialMT-20" transform="scale(0.015625)"/>
       <path id="ArialMT-53" d="M 288 1472 
L 859 1522 
Q 900 1178 1048 958 
Q 1197 738 1509 602 
Q 1822 466 2213 466 
Q 2559 466 2825 569 
Q 3091 672 3220 851 
Q 3350 1031 3350 1244 
Q 3350 1459 3225 1620 
Q 3100 1781 2813 1891 
Q 2628 1963 1997 2114 
Q 1366 2266 1113 2400 
Q 784 2572 623 2826 
Q 463 3081 463 3397 
Q 463 3744 659 4045 
Q 856 4347 1234 4503 
Q 1613 4659 2075 4659 
Q 2584 4659 2973 4495 
Q 3363 4331 3572 4012 
Q 3781 3694 3797 3291 
L 3216 3247 
Q 3169 3681 2898 3903 
Q 2628 4125 2100 4125 
Q 1550 4125 1298 3923 
Q 1047 3722 1047 3438 
Q 1047 3191 1225 3031 
Q 1400 2872 2139 2705 
Q 2878 2538 3153 2413 
Q 3553 2228 3743 1945 
Q 3934 1663 3934 1294 
Q 3934 928 3725 604 
Q 3516 281 3123 101 
Q 2731 -78 2241 -78 
Q 1619 -78 1198 103 
Q 778 284 539 648 
Q 300 1013 288 1472 
z
" transform="scale(0.015625)"/>
       <path id="ArialMT-74" d="M 1650 503 
L 1731 6 
Q 1494 -44 1306 -44 
Q 1000 -44 831 53 
Q 663 150 594 308 
Q 525 466 525 972 
L 525 2881 
L 113 2881 
L 113 3319 
L 525 3319 
L 525 4141 
L 1084 4478 
L 1084 3319 
L 1650 3319 
L 1650 2881 
L 1084 2881 
L 1084 941 
Q 1084 700 1114 631 
Q 1144 563 1211 522 
Q 1278 481 1403 481 
Q 1497 481 1650 503 
z
" transform="scale(0.015625)"/>
       <path id="ArialMT-70" d="M 422 -1272 
L 422 3319 
L 934 3319 
L 934 2888 
Q 1116 3141 1344 3267 
Q 1572 3394 1897 3394 
Q 2322 3394 2647 3175 
Q 2972 2956 3137 2557 
Q 3303 2159 3303 1684 
Q 3303 1175 3120 767 
Q 2938 359 2589 142 
Q 2241 -75 1856 -75 
Q 1575 -75 1351 44 
Q 1128 163 984 344 
L 984 -1272 
L 422 -1272 
z
M 931 1641 
Q 931 1000 1190 694 
Q 1450 388 1819 388 
Q 2194 388 2461 705 
Q 2728 1022 2728 1688 
Q 2728 2322 2467 2637 
Q 2206 2953 1844 2953 
Q 1484 2953 1207 2617 
Q 931 2281 931 1641 
z
" transform="scale(0.015625)"/>
       <path id="ArialMT-73" d="M 197 991 
L 753 1078 
Q 800 744 1014 566 
Q 1228 388 1613 388 
Q 2000 388 2187 545 
Q 2375 703 2375 916 
Q 2375 1106 2209 1216 
Q 2094 1291 1634 1406 
Q 1016 1563 777 1677 
Q 538 1791 414 1992 
Q 291 2194 291 2438 
Q 291 2659 392 2848 
Q 494 3038 669 3163 
Q 800 3259 1026 3326 
Q 1253 3394 1513 3394 
Q 1903 3394 2198 3281 
Q 2494 3169 2634 2976 
Q 2775 2784 2828 2463 
L 2278 2388 
Q 2241 2644 2061 2787 
Q 1881 2931 1553 2931 
Q 1166 2931 1000 2803 
Q 834 2675 834 2503 
Q 834 2394 903 2306 
Q 972 2216 1119 2156 
Q 1203 2125 1616 2013 
Q 2213 1853 2448 1751 
Q 2684 1650 2818 1456 
Q 2953 1263 2953 975 
Q 2953 694 2789 445 
Q 2625 197 2315 61 
Q 2006 -75 1616 -75 
Q 969 -75 630 194 
Q 291 463 197 991 
z
" transform="scale(0.015625)"/>
      </defs>
      <use xlink:href="#ArialMT-54"/>
      <use xlink:href="#ArialMT-69" x="57.333984"/>
      <use xlink:href="#ArialMT-6d" x="79.550781"/>
      <use xlink:href="#ArialMT-65" x="162.851562"/>
      <use xlink:href="#ArialMT-20" x="218.466797"/>
      <use xlink:href="#ArialMT-53" x="246.25"/>
      <use xlink:href="#ArialMT-74" x="312.949219"/>
      <use xlink:href="#ArialMT-65" x="340.732422"/>
      <use xlink:href="#ArialMT-70" x="396.347656"/>
      <use xlink:href="#ArialMT-73" x="451.962891"/>
     </g>
    </g>
   </g>
   <g id="matplotlib.axis_2">
    <g id="ytick_1">
     <g id="line2d_33">
      <path d="M 48.2 386.79899 
L 822.2 386.79899 
" clip-path="url(#pc861e7d9a2)" style="fill: none; stroke-dasharray: 2.96,1.28; stroke-dashoffset: 0; stroke: #cccccc; stroke-opacity: 0.2; stroke-width: 0.8"/>
     </g>
     <g id="line2d_34"/>
     <g id="text_18">
      <!-- 0.00 -->
      <g style="fill: #1f77b4" transform="translate(21.346875 391.093678)scale(0.12 -0.12)">
       <defs>
        <path id="ArialMT-2e" d="M 581 0 
L 581 641 
L 1222 641 
L 1222 0 
L 581 0 
z
" transform="scale(0.015625)"/>
       </defs>
       <use xlink:href="#ArialMT-30"/>
       <use xlink:href="#ArialMT-2e" x="55.615234"/>
       <use xlink:href="#ArialMT-30" x="83.398438"/>
       <use xlink:href="#ArialMT-30" x="139.013672"/>
      </g>
     </g>
    </g>
    <g id="ytick_2">
     <g id="line2d_35">
      <path d="M 48.2 326.454212 
L 822.2 326.454212 
" clip-path="url(#pc861e7d9a2)" style="fill: none; stroke-dasharray: 2.96,1.28; stroke-dashoffset: 0; stroke: #cccccc; stroke-opacity: 0.2; stroke-width: 0.8"/>
     </g>
     <g id="line2d_36"/>
     <g id="text_19">
      <!-- 0.05 -->
      <g style="fill: #1f77b4" transform="translate(21.346875 330.7489)scale(0.12 -0.12)">
       <use xlink:href="#ArialMT-30"/>
       <use xlink:href="#ArialMT-2e" x="55.615234"/>
       <use xlink:href="#ArialMT-30" x="83.398438"/>
       <use xlink:href="#ArialMT-35" x="139.013672"/>
      </g>
     </g>
    </g>
    <g id="ytick_3">
     <g id="line2d_37">
      <path d="M 48.2 266.109434 
L 822.2 266.109434 
" clip-path="url(#pc861e7d9a2)" style="fill: none; stroke-dasharray: 2.96,1.28; stroke-dashoffset: 0; stroke: #cccccc; stroke-opacity: 0.2; stroke-width: 0.8"/>
     </g>
     <g id="line2d_38"/>
     <g id="text_20">
      <!-- 0.10 -->
      <g style="fill: #1f77b4" transform="translate(21.346875 270.404121)scale(0.12 -0.12)">
       <use xlink:href="#ArialMT-30"/>
       <use xlink:href="#ArialMT-2e" x="55.615234"/>
       <use xlink:href="#ArialMT-31" x="83.398438"/>
       <use xlink:href="#ArialMT-30" x="139.013672"/>
      </g>
     </g>
    </g>
    <g id="ytick_4">
     <g id="line2d_39">
      <path d="M 48.2 205.764656 
L 822.2 205.764656 
" clip-path="url(#pc861e7d9a2)" style="fill: none; stroke-dasharray: 2.96,1.28; stroke-dashoffset: 0; stroke: #cccccc; stroke-opacity: 0.2; stroke-width: 0.8"/>
     </g>
     <g id="line2d_40"/>
     <g id="text_21">
      <!-- 0.15 -->
      <g style="fill: #1f77b4" transform="translate(21.346875 210.059343)scale(0.12 -0.12)">
       <use xlink:href="#ArialMT-30"/>
       <use xlink:href="#ArialMT-2e" x="55.615234"/>
       <use xlink:href="#ArialMT-31" x="83.398438"/>
       <use xlink:href="#ArialMT-35" x="139.013672"/>
      </g>
     </g>
    </g>
    <g id="ytick_5">
     <g id="line2d_41">
      <path d="M 48.2 145.419877 
L 822.2 145.419877 
" clip-path="url(#pc861e7d9a2)" style="fill: none; stroke-dasharray: 2.96,1.28; stroke-dashoffset: 0; stroke: #cccccc; stroke-opacity: 0.2; stroke-width: 0.8"/>
     </g>
     <g id="line2d_42"/>
     <g id="text_22">
      <!-- 0.20 -->
      <g style="fill: #1f77b4" transform="translate(21.346875 149.714565)scale(0.12 -0.12)">
       <use xlink:href="#ArialMT-30"/>
       <use xlink:href="#ArialMT-2e" x="55.615234"/>
       <use xlink:href="#ArialMT-32" x="83.398438"/>
       <use xlink:href="#ArialMT-30" x="139.013672"/>
      </g>
     </g>
    </g>
    <g id="ytick_6">
     <g id="line2d_43">
      <path d="M 48.2 85.075099 
L 822.2 85.075099 
" clip-path="url(#pc861e7d9a2)" style="fill: none; stroke-dasharray: 2.96,1.28; stroke-dashoffset: 0; stroke: #cccccc; stroke-opacity: 0.2; stroke-width: 0.8"/>
     </g>
     <g id="line2d_44"/>
     <g id="text_23">
      <!-- 0.25 -->
      <g style="fill: #1f77b4" transform="translate(21.346875 89.369786)scale(0.12 -0.12)">
       <use xlink:href="#ArialMT-30"/>
       <use xlink:href="#ArialMT-2e" x="55.615234"/>
       <use xlink:href="#ArialMT-32" x="83.398438"/>
       <use xlink:href="#ArialMT-35" x="139.013672"/>
      </g>
     </g>
    </g>
    <g id="ytick_7">
     <g id="line2d_45">
      <path d="M 48.2 24.730321 
L 822.2 24.730321 
" clip-path="url(#pc861e7d9a2)" style="fill: none; stroke-dasharray: 2.96,1.28; stroke-dashoffset: 0; stroke: #cccccc; stroke-opacity: 0.2; stroke-width: 0.8"/>
     </g>
     <g id="line2d_46"/>
     <g id="text_24">
      <!-- 0.30 -->
      <g style="fill: #1f77b4" transform="translate(21.346875 29.025008)scale(0.12 -0.12)">
       <use xlink:href="#ArialMT-30"/>
       <use xlink:href="#ArialMT-2e" x="55.615234"/>
       <use xlink:href="#ArialMT-33" x="83.398438"/>
       <use xlink:href="#ArialMT-30" x="139.013672"/>
      </g>
     </g>
    </g>
    <g id="text_25">
     <!-- Obstacle Minimum Distance (m) -->
     <g style="fill: #1f77b4" transform="translate(17.400312 301.080625)rotate(-90)scale(0.14 -0.14)">
      <defs>
       <path id="ArialMT-4f" d="M 309 2231 
Q 309 3372 921 4017 
Q 1534 4663 2503 4663 
Q 3138 4663 3647 4359 
Q 4156 4056 4423 3514 
Q 4691 2972 4691 2284 
Q 4691 1588 4409 1038 
Q 4128 488 3612 205 
Q 3097 -78 2500 -78 
Q 1853 -78 1343 234 
Q 834 547 571 1087 
Q 309 1628 309 2231 
z
M 934 2222 
Q 934 1394 1379 917 
Q 1825 441 2497 441 
Q 3181 441 3623 922 
Q 4066 1403 4066 2288 
Q 4066 2847 3877 3264 
Q 3688 3681 3323 3911 
Q 2959 4141 2506 4141 
Q 1863 4141 1398 3698 
Q 934 3256 934 2222 
z
" transform="scale(0.015625)"/>
       <path id="ArialMT-62" d="M 941 0 
L 419 0 
L 419 4581 
L 981 4581 
L 981 2947 
Q 1338 3394 1891 3394 
Q 2197 3394 2470 3270 
Q 2744 3147 2920 2923 
Q 3097 2700 3197 2384 
Q 3297 2069 3297 1709 
Q 3297 856 2875 390 
Q 2453 -75 1863 -75 
Q 1275 -75 941 416 
L 941 0 
z
M 934 1684 
Q 934 1088 1097 822 
Q 1363 388 1816 388 
Q 2184 388 2453 708 
Q 2722 1028 2722 1663 
Q 2722 2313 2464 2622 
Q 2206 2931 1841 2931 
Q 1472 2931 1203 2611 
Q 934 2291 934 1684 
z
" transform="scale(0.015625)"/>
       <path id="ArialMT-61" d="M 2588 409 
Q 2275 144 1986 34 
Q 1697 -75 1366 -75 
Q 819 -75 525 192 
Q 231 459 231 875 
Q 231 1119 342 1320 
Q 453 1522 633 1644 
Q 813 1766 1038 1828 
Q 1203 1872 1538 1913 
Q 2219 1994 2541 2106 
Q 2544 2222 2544 2253 
Q 2544 2597 2384 2738 
Q 2169 2928 1744 2928 
Q 1347 2928 1158 2789 
Q 969 2650 878 2297 
L 328 2372 
Q 403 2725 575 2942 
Q 747 3159 1072 3276 
Q 1397 3394 1825 3394 
Q 2250 3394 2515 3294 
Q 2781 3194 2906 3042 
Q 3031 2891 3081 2659 
Q 3109 2516 3109 2141 
L 3109 1391 
Q 3109 606 3145 398 
Q 3181 191 3288 0 
L 2700 0 
Q 2613 175 2588 409 
z
M 2541 1666 
Q 2234 1541 1622 1453 
Q 1275 1403 1131 1340 
Q 988 1278 909 1158 
Q 831 1038 831 891 
Q 831 666 1001 516 
Q 1172 366 1500 366 
Q 1825 366 2078 508 
Q 2331 650 2450 897 
Q 2541 1088 2541 1459 
L 2541 1666 
z
" transform="scale(0.015625)"/>
       <path id="ArialMT-63" d="M 2588 1216 
L 3141 1144 
Q 3050 572 2676 248 
Q 2303 -75 1759 -75 
Q 1078 -75 664 370 
Q 250 816 250 1647 
Q 250 2184 428 2587 
Q 606 2991 970 3192 
Q 1334 3394 1763 3394 
Q 2303 3394 2647 3120 
Q 2991 2847 3088 2344 
L 2541 2259 
Q 2463 2594 2264 2762 
Q 2066 2931 1784 2931 
Q 1359 2931 1093 2626 
Q 828 2322 828 1663 
Q 828 994 1084 691 
Q 1341 388 1753 388 
Q 2084 388 2306 591 
Q 2528 794 2588 1216 
z
" transform="scale(0.015625)"/>
       <path id="ArialMT-6c" d="M 409 0 
L 409 4581 
L 972 4581 
L 972 0 
L 409 0 
z
" transform="scale(0.015625)"/>
       <path id="ArialMT-4d" d="M 475 0 
L 475 4581 
L 1388 4581 
L 2472 1338 
Q 2622 884 2691 659 
Q 2769 909 2934 1394 
L 4031 4581 
L 4847 4581 
L 4847 0 
L 4263 0 
L 4263 3834 
L 2931 0 
L 2384 0 
L 1059 3900 
L 1059 0 
L 475 0 
z
" transform="scale(0.015625)"/>
       <path id="ArialMT-6e" d="M 422 0 
L 422 3319 
L 928 3319 
L 928 2847 
Q 1294 3394 1984 3394 
Q 2284 3394 2536 3286 
Q 2788 3178 2913 3003 
Q 3038 2828 3088 2588 
Q 3119 2431 3119 2041 
L 3119 0 
L 2556 0 
L 2556 2019 
Q 2556 2363 2490 2533 
Q 2425 2703 2258 2804 
Q 2091 2906 1866 2906 
Q 1506 2906 1245 2678 
Q 984 2450 984 1813 
L 984 0 
L 422 0 
z
" transform="scale(0.015625)"/>
       <path id="ArialMT-75" d="M 2597 0 
L 2597 488 
Q 2209 -75 1544 -75 
Q 1250 -75 995 37 
Q 741 150 617 320 
Q 494 491 444 738 
Q 409 903 409 1263 
L 409 3319 
L 972 3319 
L 972 1478 
Q 972 1038 1006 884 
Q 1059 663 1231 536 
Q 1403 409 1656 409 
Q 1909 409 2131 539 
Q 2353 669 2445 892 
Q 2538 1116 2538 1541 
L 2538 3319 
L 3100 3319 
L 3100 0 
L 2597 0 
z
" transform="scale(0.015625)"/>
       <path id="ArialMT-44" d="M 494 0 
L 494 4581 
L 2072 4581 
Q 2606 4581 2888 4516 
Q 3281 4425 3559 4188 
Q 3922 3881 4101 3404 
Q 4281 2928 4281 2316 
Q 4281 1794 4159 1391 
Q 4038 988 3847 723 
Q 3656 459 3429 307 
Q 3203 156 2883 78 
Q 2563 0 2147 0 
L 494 0 
z
M 1100 541 
L 2078 541 
Q 2531 541 2789 625 
Q 3047 709 3200 863 
Q 3416 1078 3536 1442 
Q 3656 1806 3656 2325 
Q 3656 3044 3420 3430 
Q 3184 3816 2847 3947 
Q 2603 4041 2063 4041 
L 1100 4041 
L 1100 541 
z
" transform="scale(0.015625)"/>
       <path id="ArialMT-28" d="M 1497 -1347 
Q 1031 -759 709 28 
Q 388 816 388 1659 
Q 388 2403 628 3084 
Q 909 3875 1497 4659 
L 1900 4659 
Q 1522 4009 1400 3731 
Q 1209 3300 1100 2831 
Q 966 2247 966 1656 
Q 966 153 1900 -1347 
L 1497 -1347 
z
" transform="scale(0.015625)"/>
       <path id="ArialMT-29" d="M 791 -1347 
L 388 -1347 
Q 1322 153 1322 1656 
Q 1322 2244 1188 2822 
Q 1081 3291 891 3722 
Q 769 4003 388 4659 
L 791 4659 
Q 1378 3875 1659 3084 
Q 1900 2403 1900 1659 
Q 1900 816 1576 28 
Q 1253 -759 791 -1347 
z
" transform="scale(0.015625)"/>
      </defs>
      <use xlink:href="#ArialMT-4f"/>
      <use xlink:href="#ArialMT-62" x="77.783203"/>
      <use xlink:href="#ArialMT-73" x="133.398438"/>
      <use xlink:href="#ArialMT-74" x="183.398438"/>
      <use xlink:href="#ArialMT-61" x="211.181641"/>
      <use xlink:href="#ArialMT-63" x="266.796875"/>
      <use xlink:href="#ArialMT-6c" x="316.796875"/>
      <use xlink:href="#ArialMT-65" x="339.013672"/>
      <use xlink:href="#ArialMT-20" x="394.628906"/>
      <use xlink:href="#ArialMT-4d" x="422.412109"/>
      <use xlink:href="#ArialMT-69" x="505.712891"/>
      <use xlink:href="#ArialMT-6e" x="527.929688"/>
      <use xlink:href="#ArialMT-69" x="583.544922"/>
      <use xlink:href="#ArialMT-6d" x="605.761719"/>
      <use xlink:href="#ArialMT-75" x="689.0625"/>
      <use xlink:href="#ArialMT-6d" x="744.677734"/>
      <use xlink:href="#ArialMT-20" x="827.978516"/>
      <use xlink:href="#ArialMT-44" x="855.761719"/>
      <use xlink:href="#ArialMT-69" x="927.978516"/>
      <use xlink:href="#ArialMT-73" x="950.195312"/>
      <use xlink:href="#ArialMT-74" x="1000.195312"/>
      <use xlink:href="#ArialMT-61" x="1027.978516"/>
      <use xlink:href="#ArialMT-6e" x="1083.59375"/>
      <use xlink:href="#ArialMT-63" x="1139.208984"/>
      <use xlink:href="#ArialMT-65" x="1189.208984"/>
      <use xlink:href="#ArialMT-20" x="1244.824219"/>
      <use xlink:href="#ArialMT-28" x="1272.607422"/>
      <use xlink:href="#ArialMT-6d" x="1305.908203"/>
      <use xlink:href="#ArialMT-29" x="1389.208984"/>
     </g>
    </g>
   </g>
   <g id="line2d_47">
    <path d="M 84.295039 26.274185 
L 97.993346 58.922304 
L 113.518093 96.517012 
L 125.389959 125.777584 
L 133.608943 146.771337 
L 134.522164 149.133124 
L 136.348605 156.094576 
L 140.001487 168.608401 
L 141.827928 174.371625 
L 143.654368 179.601616 
L 145.480809 184.306031 
L 147.30725 188.483455 
L 149.133691 192.122432 
L 150.960132 195.199063 
L 152.786573 197.680254 
L 153.699794 198.645158 
L 154.613014 199.364716 
L 155.526234 199.837609 
L 156.439455 200.049036 
L 157.352675 199.994051 
L 158.265896 199.69548 
L 159.179116 199.25519 
L 160.092337 198.668329 
L 161.918778 197.027464 
L 162.831998 196.03481 
L 164.658439 193.409511 
L 166.48488 190.43897 
L 170.137762 183.911089 
L 172.877423 179.160036 
L 174.703864 176.527184 
L 175.617085 175.488487 
L 176.530305 174.654185 
L 177.443525 174.013708 
L 178.356746 173.542275 
L 180.183187 172.982374 
L 183.836069 172.493084 
L 190.228612 171.536889 
L 192.968273 171.012068 
L 194.794714 170.43083 
L 197.534376 169.187507 
L 199.360816 168.029378 
L 202.100478 166.007704 
L 205.75336 163.018539 
L 214.885564 155.129944 
L 216.712005 153.330486 
L 218.538446 151.188504 
L 220.364887 148.795743 
L 222.191328 146.097938 
L 224.017769 142.962043 
L 226.75743 137.761883 
L 229.497092 132.103376 
L 232.236753 126.061029 
L 234.976414 119.542852 
L 237.716076 112.48401 
L 240.455737 104.789922 
L 246.84828 85.900707 
L 254.154044 63.144759 
L 259.633367 46.257538 
L 266.02591 27.68282 
L 266.93913 25.73587 
M 275.158115 24.864545 
L 285.20354 48.556077 
L 290.682862 61.701871 
L 297.075406 77.72571 
L 316.253035 126.418403 
L 321.732358 139.48679 
L 326.29846 149.791351 
L 329.951342 157.566555 
L 333.604224 164.862711 
L 337.257106 171.624638 
L 339.996767 176.313927 
L 342.736429 180.652419 
L 345.47609 184.620535 
L 348.215751 188.200098 
L 350.955413 191.374528 
L 353.695074 194.12902 
L 356.434735 196.450734 
L 358.261176 197.752729 
L 360.087617 198.854958 
L 361.914058 199.762209 
L 364.65372 202.655745 
L 366.48016 204.330866 
L 368.306601 205.798843 
L 370.133042 207.056747 
L 371.959483 208.102142 
L 373.785924 208.93311 
L 375.612365 209.548569 
L 377.438806 209.948361 
L 379.265247 210.132148 
L 381.091688 210.100165 
L 382.918129 209.853209 
L 384.74457 209.392617 
L 386.571011 208.720255 
L 388.397451 207.838485 
L 390.223892 206.750141 
L 392.050333 205.458492 
L 393.876774 203.967206 
L 396.616436 201.364882 
L 399.356097 198.337473 
L 402.095758 194.90124 
L 404.83542 191.073452 
L 407.575081 186.872089 
L 410.314742 182.315559 
L 413.967624 175.719817 
L 417.620506 168.569513 
L 421.273388 160.907524 
L 424.92627 152.775206 
L 429.492372 142.008191 
L 434.058474 130.639539 
L 439.537797 116.295388 
L 445.01712 101.281787 
L 451.409663 83.039656 
L 457.802206 64.132649 
L 465.10797 41.844595 
L 469.674072 27.602349 
L 469.674072 27.602349 
" clip-path="url(#pc861e7d9a2)" style="fill: none; stroke: #e24a33; stroke-width: 2; stroke-linecap: round"/>
   </g>
   <g id="line2d_48">
    <path d="M 83.381818 143.068066 
L 99.819786 193.350048 
L 109.865211 223.40034 
L 118.997416 250.019638 
L 123.563518 262.747422 
L 128.129621 274.835038 
L 133.608943 288.691244 
L 134.522164 290.934399 
L 139.088266 304.069695 
L 142.741148 314.019797 
L 146.39403 323.299781 
L 149.133691 329.644467 
L 150.960132 333.484681 
L 152.786573 336.932414 
L 153.699794 338.456419 
L 154.613014 339.751549 
L 155.526234 340.822597 
L 156.439455 341.66341 
L 157.352675 342.28781 
L 158.265896 342.700036 
L 159.179116 342.907545 
L 160.092337 342.920602 
L 161.005557 342.750502 
L 161.918778 342.396274 
L 162.831998 341.870543 
L 164.658439 340.329853 
L 166.48488 338.269866 
L 168.311321 335.807595 
L 172.877423 328.930165 
L 173.790644 328.234926 
L 174.703864 330.217563 
L 175.617085 331.879966 
L 176.530305 333.252985 
L 177.443525 334.37912 
L 178.356746 335.302958 
L 180.183187 336.696643 
L 185.66251 339.930338 
L 188.402171 341.905647 
L 191.141832 344.168214 
L 206.66658 358.003124 
L 209.406242 359.998881 
L 212.145903 361.652107 
L 214.885564 363.270157 
L 217.625226 365.188488 
L 220.364887 367.471409 
L 222.191328 369.232931 
L 226.75743 374.006061 
L 228.583871 375.549088 
L 230.410312 376.783462 
L 232.236753 377.661122 
L 233.149973 377.949993 
L 234.063194 378.112703 
L 234.976414 378.155455 
L 235.889635 378.070247 
L 236.802855 377.848914 
L 237.716076 377.483508 
L 238.629296 376.966262 
L 239.542517 376.208438 
L 240.455737 375.273164 
L 241.368958 374.160988 
L 243.195399 371.407929 
L 245.021839 367.99035 
L 246.84828 363.889417 
L 248.674721 359.26189 
L 251.414383 351.495087 
L 255.980485 337.428209 
L 259.633367 326.383576 
L 262.373028 318.438232 
L 266.02591 306.82679 
L 269.678792 294.316581 
L 271.505233 287.708866 
L 273.331674 288.062893 
L 275.158115 288.059278 
L 276.984555 287.674953 
L 278.810996 286.88949 
L 280.637437 285.686493 
L 282.463878 284.055368 
L 284.290319 281.993006 
L 286.11676 279.50545 
L 292.509303 269.964939 
L 303.467949 254.130058 
L 328.124901 218.526073 
L 334.517444 209.115926 
L 335.430665 208.548559 
L 340.909988 211.413226 
L 345.47609 213.553688 
L 349.128972 215.061109 
L 352.781854 216.358099 
L 356.434735 217.42251 
L 360.087617 218.235558 
L 363.740499 218.781817 
L 367.393381 219.048898 
L 371.046263 219.027229 
L 374.699145 218.713174 
L 379.265247 218.367698 
L 386.571011 217.877778 
L 390.223892 217.44026 
L 393.876774 216.781459 
L 397.529656 215.855715 
L 401.182538 214.631555 
L 403.922199 213.504974 
L 406.661861 212.193542 
L 409.401522 210.694175 
L 413.054404 208.400791 
L 416.707286 205.772511 
L 420.360168 202.814263 
L 424.013049 199.533777 
L 427.665931 195.940862 
L 431.318813 192.046801 
L 434.971695 187.86388 
L 439.537797 182.248717 
L 444.103899 176.228229 
L 448.670002 169.828345 
L 453.236104 163.074542 
L 458.715427 154.537437 
L 464.19475 145.566653 
L 469.674072 136.200145 
L 476.066616 124.819136 
L 482.459159 112.998102 
L 489.764922 99.008093 
L 497.983907 82.728981 
L 506.202891 65.949741 
L 515.335095 46.79765 
L 525.38052 25.198072 
L 525.38052 25.198072 
" clip-path="url(#pc861e7d9a2)" style="fill: none; stroke: #348abd; stroke-width: 2; stroke-linecap: round"/>
   </g>
   <g id="patch_3">
    <path d="M 48.2 395.82 
L 48.2 7.2 
" style="fill: none; stroke: #cccccc; stroke-linejoin: miter; stroke-linecap: square"/>
   </g>
   <g id="patch_4">
    <path d="M 822.2 395.82 
L 822.2 7.2 
" style="fill: none; stroke: #cccccc; stroke-linejoin: miter; stroke-linecap: square"/>
   </g>
   <g id="patch_5">
    <path d="M 48.2 395.82 
L 822.2 395.82 
" style="fill: none; stroke: #cccccc; stroke-linejoin: miter; stroke-linecap: square"/>
   </g>
   <g id="patch_6">
    <path d="M 48.2 7.2 
L 822.2 7.2 
" style="fill: none; stroke: #cccccc; stroke-linejoin: miter; stroke-linecap: square"/>
   </g>
  </g>
  <g id="axes_2">
   <g id="matplotlib.axis_3">
    <g id="ytick_8">
     <g id="line2d_49">
      <path d="M 48.2 380.878374 
L 822.2 380.878374 
" clip-path="url(#pc861e7d9a2)" style="fill: none; stroke: #cccccc; stroke-width: 0.8; stroke-linecap: round"/>
     </g>
     <g id="line2d_50"/>
     <g id="text_26">
      <!-- 0.0 -->
      <g transform="translate(825.7 385.173062)scale(0.12 -0.12)">
       <use xlink:href="#ArialMT-30"/>
       <use xlink:href="#ArialMT-2e" x="55.615234"/>
       <use xlink:href="#ArialMT-30" x="83.398438"/>
      </g>
     </g>
    </g>
    <g id="ytick_9">
     <g id="line2d_51">
      <path d="M 48.2 305.607727 
L 822.2 305.607727 
" clip-path="url(#pc861e7d9a2)" style="fill: none; stroke: #cccccc; stroke-width: 0.8; stroke-linecap: round"/>
     </g>
     <g id="line2d_52"/>
     <g id="text_27">
      <!-- 0.1 -->
      <g transform="translate(825.7 309.902414)scale(0.12 -0.12)">
       <use xlink:href="#ArialMT-30"/>
       <use xlink:href="#ArialMT-2e" x="55.615234"/>
       <use xlink:href="#ArialMT-31" x="83.398438"/>
      </g>
     </g>
    </g>
    <g id="ytick_10">
     <g id="line2d_53">
      <path d="M 48.2 230.337079 
L 822.2 230.337079 
" clip-path="url(#pc861e7d9a2)" style="fill: none; stroke: #cccccc; stroke-width: 0.8; stroke-linecap: round"/>
     </g>
     <g id="line2d_54"/>
     <g id="text_28">
      <!-- 0.2 -->
      <g transform="translate(825.7 234.631767)scale(0.12 -0.12)">
       <use xlink:href="#ArialMT-30"/>
       <use xlink:href="#ArialMT-2e" x="55.615234"/>
       <use xlink:href="#ArialMT-32" x="83.398438"/>
      </g>
     </g>
    </g>
    <g id="ytick_11">
     <g id="line2d_55">
      <path d="M 48.2 155.066432 
L 822.2 155.066432 
" clip-path="url(#pc861e7d9a2)" style="fill: none; stroke: #cccccc; stroke-width: 0.8; stroke-linecap: round"/>
     </g>
     <g id="line2d_56"/>
     <g id="text_29">
      <!-- 0.3 -->
      <g transform="translate(825.7 159.361119)scale(0.12 -0.12)">
       <use xlink:href="#ArialMT-30"/>
       <use xlink:href="#ArialMT-2e" x="55.615234"/>
       <use xlink:href="#ArialMT-33" x="83.398438"/>
      </g>
     </g>
    </g>
    <g id="ytick_12">
     <g id="line2d_57">
      <path d="M 48.2 79.795785 
L 822.2 79.795785 
" clip-path="url(#pc861e7d9a2)" style="fill: none; stroke: #cccccc; stroke-width: 0.8; stroke-linecap: round"/>
     </g>
     <g id="line2d_58"/>
     <g id="text_30">
      <!-- 0.4 -->
      <g transform="translate(825.7 84.090472)scale(0.12 -0.12)">
       <use xlink:href="#ArialMT-30"/>
       <use xlink:href="#ArialMT-2e" x="55.615234"/>
       <use xlink:href="#ArialMT-34" x="83.398438"/>
      </g>
     </g>
    </g>
    <g id="text_31">
     <!-- End Effector Distance to Target (m) -->
     <g transform="translate(853.571562 310.575469)rotate(-90)scale(0.14 -0.14)">
      <defs>
       <path id="ArialMT-45" d="M 506 0 
L 506 4581 
L 3819 4581 
L 3819 4041 
L 1113 4041 
L 1113 2638 
L 3647 2638 
L 3647 2100 
L 1113 2100 
L 1113 541 
L 3925 541 
L 3925 0 
L 506 0 
z
" transform="scale(0.015625)"/>
       <path id="ArialMT-64" d="M 2575 0 
L 2575 419 
Q 2259 -75 1647 -75 
Q 1250 -75 917 144 
Q 584 363 401 755 
Q 219 1147 219 1656 
Q 219 2153 384 2558 
Q 550 2963 881 3178 
Q 1213 3394 1622 3394 
Q 1922 3394 2156 3267 
Q 2391 3141 2538 2938 
L 2538 4581 
L 3097 4581 
L 3097 0 
L 2575 0 
z
M 797 1656 
Q 797 1019 1065 703 
Q 1334 388 1700 388 
Q 2069 388 2326 689 
Q 2584 991 2584 1609 
Q 2584 2291 2321 2609 
Q 2059 2928 1675 2928 
Q 1300 2928 1048 2622 
Q 797 2316 797 1656 
z
" transform="scale(0.015625)"/>
       <path id="ArialMT-66" d="M 556 0 
L 556 2881 
L 59 2881 
L 59 3319 
L 556 3319 
L 556 3672 
Q 556 4006 616 4169 
Q 697 4388 901 4523 
Q 1106 4659 1475 4659 
Q 1713 4659 2000 4603 
L 1916 4113 
Q 1741 4144 1584 4144 
Q 1328 4144 1222 4034 
Q 1116 3925 1116 3625 
L 1116 3319 
L 1763 3319 
L 1763 2881 
L 1116 2881 
L 1116 0 
L 556 0 
z
" transform="scale(0.015625)"/>
       <path id="ArialMT-6f" d="M 213 1659 
Q 213 2581 725 3025 
Q 1153 3394 1769 3394 
Q 2453 3394 2887 2945 
Q 3322 2497 3322 1706 
Q 3322 1066 3130 698 
Q 2938 331 2570 128 
Q 2203 -75 1769 -75 
Q 1072 -75 642 372 
Q 213 819 213 1659 
z
M 791 1659 
Q 791 1022 1069 705 
Q 1347 388 1769 388 
Q 2188 388 2466 706 
Q 2744 1025 2744 1678 
Q 2744 2294 2464 2611 
Q 2184 2928 1769 2928 
Q 1347 2928 1069 2612 
Q 791 2297 791 1659 
z
" transform="scale(0.015625)"/>
       <path id="ArialMT-72" d="M 416 0 
L 416 3319 
L 922 3319 
L 922 2816 
Q 1116 3169 1280 3281 
Q 1444 3394 1641 3394 
Q 1925 3394 2219 3213 
L 2025 2691 
Q 1819 2813 1613 2813 
Q 1428 2813 1281 2702 
Q 1134 2591 1072 2394 
Q 978 2094 978 1738 
L 978 0 
L 416 0 
z
" transform="scale(0.015625)"/>
       <path id="ArialMT-67" d="M 319 -275 
L 866 -356 
Q 900 -609 1056 -725 
Q 1266 -881 1628 -881 
Q 2019 -881 2231 -725 
Q 2444 -569 2519 -288 
Q 2563 -116 2559 434 
Q 2191 0 1641 0 
Q 956 0 581 494 
Q 206 988 206 1678 
Q 206 2153 378 2554 
Q 550 2956 876 3175 
Q 1203 3394 1644 3394 
Q 2231 3394 2613 2919 
L 2613 3319 
L 3131 3319 
L 3131 450 
Q 3131 -325 2973 -648 
Q 2816 -972 2473 -1159 
Q 2131 -1347 1631 -1347 
Q 1038 -1347 672 -1080 
Q 306 -813 319 -275 
z
M 784 1719 
Q 784 1066 1043 766 
Q 1303 466 1694 466 
Q 2081 466 2343 764 
Q 2606 1063 2606 1700 
Q 2606 2309 2336 2618 
Q 2066 2928 1684 2928 
Q 1309 2928 1046 2623 
Q 784 2319 784 1719 
z
" transform="scale(0.015625)"/>
      </defs>
      <use xlink:href="#ArialMT-45"/>
      <use xlink:href="#ArialMT-6e" x="66.699219"/>
      <use xlink:href="#ArialMT-64" x="122.314453"/>
      <use xlink:href="#ArialMT-20" x="177.929688"/>
      <use xlink:href="#ArialMT-45" x="205.712891"/>
      <use xlink:href="#ArialMT-66" x="272.412109"/>
      <use xlink:href="#ArialMT-66" x="298.445312"/>
      <use xlink:href="#ArialMT-65" x="326.228516"/>
      <use xlink:href="#ArialMT-63" x="381.84375"/>
      <use xlink:href="#ArialMT-74" x="431.84375"/>
      <use xlink:href="#ArialMT-6f" x="459.626953"/>
      <use xlink:href="#ArialMT-72" x="515.242188"/>
      <use xlink:href="#ArialMT-20" x="548.542969"/>
      <use xlink:href="#ArialMT-44" x="576.326172"/>
      <use xlink:href="#ArialMT-69" x="648.542969"/>
      <use xlink:href="#ArialMT-73" x="670.759766"/>
      <use xlink:href="#ArialMT-74" x="720.759766"/>
      <use xlink:href="#ArialMT-61" x="748.542969"/>
      <use xlink:href="#ArialMT-6e" x="804.158203"/>
      <use xlink:href="#ArialMT-63" x="859.773438"/>
      <use xlink:href="#ArialMT-65" x="909.773438"/>
      <use xlink:href="#ArialMT-20" x="965.388672"/>
      <use xlink:href="#ArialMT-74" x="993.171875"/>
      <use xlink:href="#ArialMT-6f" x="1020.955078"/>
      <use xlink:href="#ArialMT-20" x="1076.570312"/>
      <use xlink:href="#ArialMT-54" x="1102.603516"/>
      <use xlink:href="#ArialMT-61" x="1152.5625"/>
      <use xlink:href="#ArialMT-72" x="1208.177734"/>
      <use xlink:href="#ArialMT-67" x="1241.478516"/>
      <use xlink:href="#ArialMT-65" x="1297.09375"/>
      <use xlink:href="#ArialMT-74" x="1352.708984"/>
      <use xlink:href="#ArialMT-20" x="1380.492188"/>
      <use xlink:href="#ArialMT-28" x="1408.275391"/>
      <use xlink:href="#ArialMT-6d" x="1441.576172"/>
      <use xlink:href="#ArialMT-29" x="1524.876953"/>
     </g>
    </g>
   </g>
   <g id="line2d_59">
    <path d="M 83.381818 24.864545 
L 93.427243 37.205684 
L 104.385889 50.294744 
L 115.344534 63.040955 
L 120.823857 69.243993 
L 123.563518 72.026179 
L 126.30318 74.516536 
L 129.042841 76.718933 
L 131.782503 78.633034 
L 136.348605 81.483011 
L 137.261825 81.868587 
L 138.175046 82.11581 
L 139.088266 82.234453 
L 140.914707 82.122185 
L 142.741148 81.597722 
L 144.567589 80.716238 
L 146.39403 79.52191 
L 148.220471 78.047448 
L 150.046912 76.313079 
L 151.873353 74.32617 
L 153.699794 72.081745 
L 155.526234 69.586333 
L 157.352675 66.734177 
L 162.831998 57.532457 
L 165.571659 53.528078 
L 168.311321 49.952664 
L 171.050982 46.795533 
L 172.877423 45.037884 
L 173.790644 44.358082 
L 174.703864 43.823583 
L 175.617085 43.434025 
L 176.530305 43.179952 
L 178.356746 43.012512 
L 180.183187 43.180243 
L 183.836069 43.972649 
L 197.534376 47.227543 
L 206.66658 49.895901 
L 212.145903 51.728242 
L 214.885564 52.816013 
L 216.712005 53.406279 
L 219.451667 53.966169 
L 222.191328 54.244846 
L 224.017769 54.189274 
L 227.670651 53.829513 
L 232.236753 53.130756 
L 236.802855 52.171999 
L 240.455737 51.101457 
L 245.93506 49.48786 
L 249.587942 48.383227 
L 254.154044 46.787378 
L 258.720146 44.934743 
L 267.852351 40.830934 
L 271.505233 38.861758 
L 288.856421 64.951628 
L 293.422524 72.409059 
L 298.901846 81.764238 
L 307.120831 96.286978 
L 326.29846 130.381188 
L 334.517444 144.438262 
L 341.823208 156.460604 
L 348.215751 166.561946 
L 354.608294 176.244903 
L 361.000838 185.494917 
L 367.393381 194.306765 
L 372.872704 201.512477 
L 378.352026 208.398504 
L 383.831349 214.963979 
L 389.310672 221.220055 
L 394.789995 227.17945 
L 400.269317 232.855498 
L 406.661861 239.137552 
L 413.054404 245.07398 
L 419.446947 250.685968 
L 425.83949 255.994063 
L 432.232034 261.017889 
L 438.624577 265.776131 
L 445.01712 270.286477 
L 452.322884 275.158676 
L 459.628647 279.751401 
L 466.934411 284.085608 
L 474.240175 288.180444 
L 482.459159 292.522984 
L 490.678143 296.607778 
L 498.897127 300.455323 
L 508.029332 304.474506 
L 517.161536 308.246197 
L 526.293741 311.790695 
L 536.339166 315.448773 
L 546.384591 318.875285 
L 557.343236 322.371553 
L 568.301882 325.636866 
L 580.173748 328.936173 
L 592.045614 332.009125 
L 604.8307 335.087486 
L 618.529007 338.14358 
L 631.542399 340.971817 
L 635.651891 344.093572 
L 639.989688 347.098804 
L 644.327485 349.837239 
L 648.893587 352.461717 
L 653.687995 354.962465 
L 658.710707 357.332222 
L 663.961725 359.562913 
L 669.441048 361.642543 
L 675.148676 363.570593 
L 681.312914 365.413479 
L 687.933762 367.151822 
L 695.011221 368.771827 
L 702.545289 370.264908 
L 710.764273 371.663053 
L 719.668173 372.949996 
L 729.485293 374.141832 
L 740.443938 375.243035 
L 752.772415 376.250707 
L 766.699027 377.158404 
L 782.680385 377.969546 
L 787.018182 378.155455 
L 787.018182 378.155455 
" clip-path="url(#pc861e7d9a2)" style="fill: none; stroke-dasharray: 7.4,3.2; stroke-dashoffset: 0; stroke: #000000; stroke-width: 2"/>
   </g>
   <g id="patch_7">
    <path d="M 48.2 395.82 
L 48.2 7.2 
" style="fill: none; stroke: #cccccc; stroke-linejoin: miter; stroke-linecap: square"/>
   </g>
   <g id="patch_8">
    <path d="M 822.2 395.82 
L 822.2 7.2 
" style="fill: none; stroke: #cccccc; stroke-linejoin: miter; stroke-linecap: square"/>
   </g>
   <g id="patch_9">
    <path d="M 48.2 395.82 
L 822.2 395.82 
" style="fill: none; stroke: #cccccc; stroke-linejoin: miter; stroke-linecap: square"/>
   </g>
   <g id="patch_10">
    <path d="M 48.2 7.2 
L 822.2 7.2 
" style="fill: none; stroke: #cccccc; stroke-linejoin: miter; stroke-linecap: square"/>
   </g>
  </g>
  <g id="legend_1">
   <g id="patch_11">
    <path d="M 614.965625 90.69 
L 819.014375 90.69 
Q 821.414375 90.69 821.414375 88.29 
L 821.414375 38.28 
Q 821.414375 35.88 819.014375 35.88 
L 614.965625 35.88 
Q 612.565625 35.88 612.565625 38.28 
L 612.565625 88.29 
Q 612.565625 90.69 614.965625 90.69 
z
" style="fill: #ffffff; stroke: #cccccc; stroke-width: 0.5; stroke-linejoin: miter"/>
   </g>
   <g id="line2d_60">
    <path d="M 617.365625 45.069375 
L 629.365625 45.069375 
L 641.365625 45.069375 
" style="fill: none; stroke: #e24a33; stroke-width: 2; stroke-linecap: round"/>
   </g>
   <g id="text_32">
    <!-- Obstacle 0 Minimum Distance -->
    <g style="fill: #262626" transform="translate(650.965625 49.269375)scale(0.12 -0.12)">
     <use xlink:href="#ArialMT-4f"/>
     <use xlink:href="#ArialMT-62" x="77.783203"/>
     <use xlink:href="#ArialMT-73" x="133.398438"/>
     <use xlink:href="#ArialMT-74" x="183.398438"/>
     <use xlink:href="#ArialMT-61" x="211.181641"/>
     <use xlink:href="#ArialMT-63" x="266.796875"/>
     <use xlink:href="#ArialMT-6c" x="316.796875"/>
     <use xlink:href="#ArialMT-65" x="339.013672"/>
     <use xlink:href="#ArialMT-20" x="394.628906"/>
     <use xlink:href="#ArialMT-30" x="422.412109"/>
     <use xlink:href="#ArialMT-20" x="478.027344"/>
     <use xlink:href="#ArialMT-4d" x="505.810547"/>
     <use xlink:href="#ArialMT-69" x="589.111328"/>
     <use xlink:href="#ArialMT-6e" x="611.328125"/>
     <use xlink:href="#ArialMT-69" x="666.943359"/>
     <use xlink:href="#ArialMT-6d" x="689.160156"/>
     <use xlink:href="#ArialMT-75" x="772.460938"/>
     <use xlink:href="#ArialMT-6d" x="828.076172"/>
     <use xlink:href="#ArialMT-20" x="911.376953"/>
     <use xlink:href="#ArialMT-44" x="939.160156"/>
     <use xlink:href="#ArialMT-69" x="1011.376953"/>
     <use xlink:href="#ArialMT-73" x="1033.59375"/>
     <use xlink:href="#ArialMT-74" x="1083.59375"/>
     <use xlink:href="#ArialMT-61" x="1111.376953"/>
     <use xlink:href="#ArialMT-6e" x="1166.992188"/>
     <use xlink:href="#ArialMT-63" x="1222.607422"/>
     <use xlink:href="#ArialMT-65" x="1272.607422"/>
    </g>
   </g>
   <g id="line2d_61">
    <path d="M 617.365625 62.04375 
L 629.365625 62.04375 
L 641.365625 62.04375 
" style="fill: none; stroke: #348abd; stroke-width: 2; stroke-linecap: round"/>
   </g>
   <g id="text_33">
    <!-- Obstacle 1 Minimum Distance -->
    <g style="fill: #262626" transform="translate(650.965625 66.24375)scale(0.12 -0.12)">
     <use xlink:href="#ArialMT-4f"/>
     <use xlink:href="#ArialMT-62" x="77.783203"/>
     <use xlink:href="#ArialMT-73" x="133.398438"/>
     <use xlink:href="#ArialMT-74" x="183.398438"/>
     <use xlink:href="#ArialMT-61" x="211.181641"/>
     <use xlink:href="#ArialMT-63" x="266.796875"/>
     <use xlink:href="#ArialMT-6c" x="316.796875"/>
     <use xlink:href="#ArialMT-65" x="339.013672"/>
     <use xlink:href="#ArialMT-20" x="394.628906"/>
     <use xlink:href="#ArialMT-31" x="422.412109"/>
     <use xlink:href="#ArialMT-20" x="478.027344"/>
     <use xlink:href="#ArialMT-4d" x="505.810547"/>
     <use xlink:href="#ArialMT-69" x="589.111328"/>
     <use xlink:href="#ArialMT-6e" x="611.328125"/>
     <use xlink:href="#ArialMT-69" x="666.943359"/>
     <use xlink:href="#ArialMT-6d" x="689.160156"/>
     <use xlink:href="#ArialMT-75" x="772.460938"/>
     <use xlink:href="#ArialMT-6d" x="828.076172"/>
     <use xlink:href="#ArialMT-20" x="911.376953"/>
     <use xlink:href="#ArialMT-44" x="939.160156"/>
     <use xlink:href="#ArialMT-69" x="1011.376953"/>
     <use xlink:href="#ArialMT-73" x="1033.59375"/>
     <use xlink:href="#ArialMT-74" x="1083.59375"/>
     <use xlink:href="#ArialMT-61" x="1111.376953"/>
     <use xlink:href="#ArialMT-6e" x="1166.992188"/>
     <use xlink:href="#ArialMT-63" x="1222.607422"/>
     <use xlink:href="#ArialMT-65" x="1272.607422"/>
    </g>
   </g>
   <g id="line2d_62">
    <path d="M 617.365625 79.164375 
L 629.365625 79.164375 
L 641.365625 79.164375 
" style="fill: none; stroke-dasharray: 7.4,3.2; stroke-dashoffset: 0; stroke: #000000; stroke-width: 2"/>
   </g>
   <g id="text_34">
    <!-- End Effector Distance to Target -->
    <g style="fill: #262626" transform="translate(650.965625 83.364375)scale(0.12 -0.12)">
     <use xlink:href="#ArialMT-45"/>
     <use xlink:href="#ArialMT-6e" x="66.699219"/>
     <use xlink:href="#ArialMT-64" x="122.314453"/>
     <use xlink:href="#ArialMT-20" x="177.929688"/>
     <use xlink:href="#ArialMT-45" x="205.712891"/>
     <use xlink:href="#ArialMT-66" x="272.412109"/>
     <use xlink:href="#ArialMT-66" x="298.445312"/>
     <use xlink:href="#ArialMT-65" x="326.228516"/>
     <use xlink:href="#ArialMT-63" x="381.84375"/>
     <use xlink:href="#ArialMT-74" x="431.84375"/>
     <use xlink:href="#ArialMT-6f" x="459.626953"/>
     <use xlink:href="#ArialMT-72" x="515.242188"/>
     <use xlink:href="#ArialMT-20" x="548.542969"/>
     <use xlink:href="#ArialMT-44" x="576.326172"/>
     <use xlink:href="#ArialMT-69" x="648.542969"/>
     <use xlink:href="#ArialMT-73" x="670.759766"/>
     <use xlink:href="#ArialMT-74" x="720.759766"/>
     <use xlink:href="#ArialMT-61" x="748.542969"/>
     <use xlink:href="#ArialMT-6e" x="804.158203"/>
     <use xlink:href="#ArialMT-63" x="859.773438"/>
     <use xlink:href="#ArialMT-65" x="909.773438"/>
     <use xlink:href="#ArialMT-20" x="965.388672"/>
     <use xlink:href="#ArialMT-74" x="993.171875"/>
     <use xlink:href="#ArialMT-6f" x="1020.955078"/>
     <use xlink:href="#ArialMT-20" x="1076.570312"/>
     <use xlink:href="#ArialMT-54" x="1102.603516"/>
     <use xlink:href="#ArialMT-61" x="1152.5625"/>
     <use xlink:href="#ArialMT-72" x="1208.177734"/>
     <use xlink:href="#ArialMT-67" x="1241.478516"/>
     <use xlink:href="#ArialMT-65" x="1297.09375"/>
     <use xlink:href="#ArialMT-74" x="1352.708984"/>
    </g>
   </g>
  </g>
 </g>
 <defs>
  <clipPath id="pc861e7d9a2">
   <rect x="48.2" y="7.2" width="774" height="388.62"/>
  </clipPath>
 </defs>
</svg>
